<?xml version="1.0" standalone="no"?><!DOCTYPE svg PUBLIC "-//W3C//DTD SVG 1.1//EN" "http://www.w3.org/Graphics/SVG/1.1/DTD/svg11.dtd"><svg class="icon" width="128px" height="128.00px" viewBox="0 0 1024 1024" version="1.1" xmlns="http://www.w3.org/2000/svg"><path d="M902.4 806.4c-6.4 0-6.4 0-12.8-6.4-12.8-6.4-12.8-19.2-6.4-32 25.6-38.4 44.8-76.8 57.6-121.6 25.6-96 19.2-192-6.4-281.6l-409.6 192c-12.8 0-25.6 0-32-12.8-6.4-12.8 0-25.6 12.8-32l448-211.2 6.4 25.6c44.8 102.4 51.2 217.6 19.2 332.8-12.8 44.8-32 96-64 134.4 0 6.4-6.4 12.8-12.8 12.8zM966.4 204.8c-44.8-83.2-128-153.6-224-185.6L633.6 364.8l332.8-160z" fill="#ffffff" /><path d="M512 1011.2c-44.8 0-96-6.4-140.8-19.2-128-38.4-230.4-121.6-288-236.8C19.2 640 6.4 505.6 44.8 384 115.2 128 377.6-19.2 627.2 44.8l25.6 6.4L512 518.4l281.6 403.2-19.2 12.8c-83.2 51.2-172.8 76.8-262.4 76.8zM512 76.8c-192 0-364.8 121.6-422.4 313.6-70.4 230.4 64 480 294.4 550.4 115.2 32 236.8 19.2 339.2-38.4L460.8 524.8l134.4-441.6c-32-6.4-57.6-6.4-83.2-6.4z" fill="#ffffff" /></svg>